<?xml version="1.0" encoding="UTF-8"?>
<svg id="OBJECTS" xmlns="http://www.w3.org/2000/svg" xmlns:xlink="http://www.w3.org/1999/xlink" viewBox="0 0 162.44 172.02">
  <defs>
    <style>
      .cls-1 {
        fill: url(#Degradado_sin_nombre_48);
        stroke-width: 0px;
      }
    </style>
    <linearGradient id="Degradado_sin_nombre_48" data-name="Degradado sin nombre 48" x1="0" y1="86.01" x2="162.44" y2="86.01" gradientUnits="userSpaceOnUse">
      <stop offset="0" stop-color="#8fffc8"/>
      <stop offset=".48" stop-color="#5697b8"/>
      <stop offset="1" stop-color="#51318c"/>
    </linearGradient>
  </defs>
  <path class="cls-1" d="M93.12,156.06c0,8.81-7.14,15.96-15.96,15.96s-15.96-7.15-15.96-15.96,7.14-15.96,15.96-15.96,15.96,7.15,15.96,15.96ZM60.73,143.21c0-8.81-7.15-15.96-15.96-15.96s-15.96,7.14-15.96,15.96,7.14,15.96,15.96,15.96,15.96-7.15,15.96-15.96ZM38.4,116.26c0-8.81-7.14-15.96-15.96-15.96s-15.96,7.14-15.96,15.96,7.14,15.96,15.96,15.96,15.96-7.15,15.96-15.96ZM31.92,80.57c0-8.81-7.14-15.96-15.96-15.96S0,71.76,0,80.57s7.14,15.96,15.96,15.96,15.96-7.15,15.96-15.96ZM43.2,47.74c0-8.81-7.14-15.96-15.96-15.96s-15.96,7.15-15.96,15.96,7.14,15.96,15.96,15.96,15.96-7.15,15.96-15.96ZM68.78,24.29c0-8.81-7.14-15.96-15.96-15.96s-15.96,7.15-15.96,15.96,7.14,15.96,15.96,15.96,15.96-7.15,15.96-15.96ZM104.07,15.96c0-8.81-7.14-15.96-15.96-15.96s-15.96,7.15-15.96,15.96,7.14,15.96,15.96,15.96,15.96-7.15,15.96-15.96ZM137.72,25.67c0-8.81-7.15-15.96-15.96-15.96s-15.96,7.15-15.96,15.96,7.14,15.96,15.96,15.96,15.96-7.15,15.96-15.96ZM162.44,50.21c0-8.81-7.14-15.96-15.96-15.96s-15.96,7.15-15.96,15.96,7.14,15.96,15.96,15.96,15.96-7.15,15.96-15.96Z"/>
</svg>